<svg width="84" height="20" viewBox="0 0 84 20" fill="none" xmlns="http://www.w3.org/2000/svg">
<g clip-path="url(#clip0_417_47)">
<path d="M0.745728 16.3807L3.12619 13.7839C4.17119 15.1062 5.4064 15.8209 6.61585 15.8221C8.476 15.8221 9.43341 15.0012 9.435 12.462L9.44134 4.08128L2.29915 4.07403L2.30193 0.555725L13.5896 0.564578L13.5805 12.8072C13.5777 16.441 11.8099 19.4471 6.75059 19.4443C4.72162 19.443 2.33878 18.6382 0.745728 16.3807Z" fill="white"/>
<path d="M16.5896 10.0944C16.5944 3.9495 20.4335 0.386116 25.3324 0.39014C27.6506 0.39014 29.5516 1.51449 30.7876 2.75191L28.5066 5.34547C27.6348 4.52535 26.6512 4.01388 25.3296 4.01268C22.7336 4.01268 20.8362 6.24688 20.8338 9.95956C20.8306 13.7696 22.7244 15.9821 25.4834 15.9861C26.8022 15.9861 27.8912 15.331 28.7792 14.3523L31.0555 16.8915C29.5627 18.6799 27.5155 19.6119 25.0538 19.6099C20.508 19.6042 16.5848 16.3483 16.5896 10.0944Z" fill="white"/>
<path d="M48.4961 19.274L44.366 11.8543C46.3189 10.9606 47.6262 9.2342 47.6282 6.51106C47.6318 2.1014 44.4449 0.734 40.5708 0.730781L34.0694 0.725952L34.0555 19.2616L38.2026 19.2648L38.2074 12.5972H40.3814L43.8659 19.2672L48.4961 19.274ZM38.2137 4.05875H40.2312C42.406 4.05875 43.5722 4.67645 43.5707 6.50623C43.5707 8.32072 42.402 9.268 40.2272 9.26639H38.2098L38.2137 4.05875Z" fill="white"/>
<path d="M51.5106 0.727356L63.6329 0.736611L63.6301 4.25371L55.6474 4.24768L55.6446 7.96518L62.427 7.97041L62.4242 11.4875L55.6419 11.4823L55.6387 15.7479L63.9024 15.7543L63.8996 19.2726L51.496 19.263L51.5106 0.727356Z" fill="white"/>
<path d="M78.8657 19.2682L83.2541 19.2718L77.5734 0.731786L72.6124 0.728165L66.9023 19.2593L71.1386 19.2626L72.2581 14.8549L77.7617 14.8589L78.8657 19.2682ZM73.0879 11.5869L73.5238 9.87987C73.9883 8.02877 74.4983 5.85895 74.9477 3.90321H75.0598C75.4989 5.85975 76.0533 8.03158 76.5153 9.88229L76.9433 11.5901L73.0879 11.5869Z" fill="white"/>
</g>
<defs>
<clipPath id="clip0_417_47">
<rect width="82.5084" height="19.2197" fill="white" transform="translate(0.745728 0.390137)"/>
</clipPath>
</defs>
</svg>
